<svg width="72" height="72" viewBox="0 0 72 72" fill="none" xmlns="http://www.w3.org/2000/svg">
<path d="M6.58511 20.9053C6.7712 18.6006 7.81819 16.4504 9.51774 14.8826C11.2173 13.3148 13.4448 12.4444 15.7571 12.4445H56.2432C58.576 12.4444 60.8219 13.3304 62.5263 14.9233C64.2307 16.5162 65.2664 18.697 65.4239 21.0246L36.0031 36.5153L6.58511 20.9053ZM6.55566 25.057V50.3542C6.55566 52.7945 7.52509 55.1349 9.25069 56.8605C10.9763 58.5861 13.3167 59.5556 15.7571 59.5556H56.2432C58.6835 59.5556 61.0239 58.5861 62.7495 56.8605C64.4751 55.1349 65.4446 52.7945 65.4446 50.3542V25.1733L36.8569 40.2253C36.5917 40.3648 36.2965 40.4375 35.9968 40.437C35.6971 40.4365 35.4021 40.3628 35.1374 40.2223L6.55566 25.057Z" fill="black"/>
</svg>
