<svg width="74" height="74" viewBox="0 0 74 74" fill="none" xmlns="http://www.w3.org/2000/svg">
<path d="M47.5877 43.1017L46.1974 44.4858C46.1974 44.4858 42.8882 47.7736 33.859 38.7964C24.8299 29.8192 28.139 26.5314 28.139 26.5314L29.0129 25.6575C31.1732 23.5125 31.3779 20.0658 29.4927 17.548L25.6427 12.4055C23.3082 9.28888 18.8013 8.87638 16.1277 11.5347L11.3304 16.3014C10.0074 17.6214 9.12126 19.3264 9.22821 21.2208C9.50321 26.07 11.6971 36.4986 23.9315 48.6658C36.9085 61.5664 49.0849 62.0797 54.0624 61.6153C55.639 61.4686 57.0079 60.668 58.111 59.5681L62.4499 55.2536C65.3832 52.3417 64.5582 47.3458 60.806 45.3078L54.9699 42.133C52.5071 40.7978 49.5127 41.1889 47.5877 43.1017Z" fill="#d13d25"/>
</svg>
