<svg width="67" height="68" viewBox="0 0 67 68" fill="none" xmlns="http://www.w3.org/2000/svg">
<path d="M33.3334 4.83325C27.2577 4.84014 21.4327 7.25679 17.1365 11.553C12.8403 15.8492 10.4236 21.6742 10.4167 27.7499C10.4167 47.3593 31.2501 62.1692 32.1381 62.789C32.4884 63.0344 32.9057 63.166 33.3334 63.166C33.7611 63.166 34.1784 63.0344 34.5287 62.789C35.4167 62.1692 56.2501 47.3593 56.2501 27.7499C56.2432 21.6742 53.8265 15.8492 49.5303 11.553C45.2341 7.25679 39.4092 4.84014 33.3334 4.83325ZM33.3334 19.4166C34.9816 19.4166 36.5928 19.9053 37.9632 20.821C39.3336 21.7367 40.4017 23.0382 41.0324 24.5609C41.6631 26.0836 41.8282 27.7592 41.5066 29.3757C41.1851 30.9922 40.3914 32.477 39.226 33.6425C38.0605 34.8079 36.5757 35.6016 34.9592 35.9231C33.3427 36.2447 31.6671 36.0796 30.1444 35.4489C28.6217 34.8182 27.3202 33.7501 26.4045 32.3797C25.4888 31.0093 25.0001 29.3981 25.0001 27.7499C25.0001 25.5398 25.8781 23.4202 27.4409 21.8574C29.0037 20.2946 31.1233 19.4166 33.3334 19.4166Z" fill="#d13d25"/>
</svg>
