<svg width="1479" height="1584" viewBox="0 0 1479 1584" fill="none" xmlns="http://www.w3.org/2000/svg">
<path d="M995.497 739.433L1151.19 685.114C1169.78 678.627 1187.97 679.675 1205.76 688.26C1223.54 696.845 1235.68 710.435 1242.17 729.03L1314.89 937.46C1323.97 963.493 1323.71 989.373 1314.1 1015.1C1304.83 1040.71 1288.4 1060.47 1264.82 1074.39C1253.13 1081.12 1241.39 1087.68 1229.59 1094.08C1192.75 1115.65 1151.84 1134.29 1106.88 1149.97C983.137 1193.15 875.053 1193.69 782.626 1151.61C695.671 1112.16 634.383 1041.39 598.76 939.29C559.008 825.355 566.901 721.344 622.438 627.257C674.421 538.202 758.732 473.327 875.372 432.632C904.447 422.488 937.375 412.517 974.156 402.718C990.738 398.07 1005.84 401.144 1019.47 411.938C1033.1 422.733 1039.69 436.74 1039.25 453.959L1039.27 455.657C1038.06 490.214 1020.54 513.39 986.735 525.185L903.058 554.38C833.075 578.797 783.381 624.957 753.979 692.86C724.356 761.219 725.024 829.439 755.982 897.52C781.814 955.253 826.393 997.155 889.72 1023.22C952.929 1048.96 1014.79 1051.26 1075.31 1030.15C1081.73 1027.91 1089.34 1025.25 1098.13 1022.19C1114.36 1016.53 1126.05 1006 1133.19 990.613C1140.68 975.108 1141.65 959.41 1136.1 943.52L1108.15 863.393C1104.37 852.575 1097.3 844.803 1086.93 840.078C1076.9 835.235 1066.47 834.701 1055.65 838.475L1009 854.754C990.062 861.359 974.816 856.249 963.258 839.424L962.904 838.41C950.653 820.688 947.951 801.531 954.798 780.938C961.646 760.346 975.212 746.511 995.497 739.433Z" fill="#D13D25"/>
<path d="M666.213 1239.27L664.326 1239.01C633.299 1234.78 611.172 1218.52 597.945 1190.24L447.776 896.206C438.686 878.309 424.344 867.598 404.752 864.071C385.159 860.545 367.834 865.443 352.778 878.765L352.063 879.308L323.584 1088.12C319.696 1116.63 306.345 1139.37 283.531 1156.33C261.079 1173.77 235.597 1180.54 207.085 1176.65L205.198 1176.4C176.686 1172.51 153.949 1159.16 136.987 1136.34C119.548 1113.89 112.773 1088.41 116.662 1059.9L205.357 409.569C209.246 381.057 222.597 358.32 245.411 341.358C267.863 323.919 293.345 317.144 321.857 321.033L323.743 321.29C352.256 325.179 374.993 338.53 391.955 361.344C409.393 383.796 416.168 409.278 412.279 437.79L391.778 588.107C390.749 595.655 393.627 601.172 400.412 604.66C407.254 607.729 413.381 606.643 418.794 601.401L611.284 406.633C631.544 383.343 656.978 373.786 687.587 377.96L690.103 378.303C724.066 382.935 746.984 401.223 758.857 433.166C771.092 465.585 765.831 494.764 743.074 520.703L623.915 656.924C587.435 698.93 581.145 745.052 605.043 795.292L756.641 1116.43C771.201 1147.46 768.247 1176.95 747.777 1204.91C727.783 1232.51 700.596 1243.96 666.213 1239.27Z" fill="#F0D5AF"/>
</svg>
